<mxfile host="app.diagrams.net" agent="Mozilla/5.0 (Windows NT 10.0; Win64; x64) AppleWebKit/537.36 (KHTML, like Gecko) Chrome/131.0.0.0 Safari/537.36 Edg/131.0.0.0" version="26.0.2">
  <diagram name="第 1 页" id="BM2OxMldrjYHGKGh_AcP">
    <mxGraphModel grid="1" page="1" gridSize="10" guides="1" tooltips="1" connect="1" arrows="1" fold="1" pageScale="1" pageWidth="1169" pageHeight="827" math="0" shadow="0">
      <root>
        <mxCell id="0" />
        <mxCell id="1" parent="0" />
        <mxCell id="QDK1HJ11pZuQHfol41g1-5" style="edgeStyle=orthogonalEdgeStyle;rounded=0;orthogonalLoop=1;jettySize=auto;html=1;exitX=0.5;exitY=1;exitDx=0;exitDy=0;entryX=0.5;entryY=0;entryDx=0;entryDy=0;" edge="1" parent="1" source="QDK1HJ11pZuQHfol41g1-1" target="QDK1HJ11pZuQHfol41g1-2">
          <mxGeometry relative="1" as="geometry" />
        </mxCell>
        <mxCell id="QDK1HJ11pZuQHfol41g1-1" value="註冊" style="rounded=1;whiteSpace=wrap;html=1;" vertex="1" parent="1">
          <mxGeometry x="260" y="40" width="90" height="40" as="geometry" />
        </mxCell>
        <mxCell id="QDK1HJ11pZuQHfol41g1-6" style="edgeStyle=orthogonalEdgeStyle;rounded=0;orthogonalLoop=1;jettySize=auto;html=1;exitX=0.5;exitY=1;exitDx=0;exitDy=0;entryX=0.5;entryY=0;entryDx=0;entryDy=0;" edge="1" parent="1" source="QDK1HJ11pZuQHfol41g1-2" target="QDK1HJ11pZuQHfol41g1-3">
          <mxGeometry relative="1" as="geometry" />
        </mxCell>
        <mxCell id="QDK1HJ11pZuQHfol41g1-2" value="四要素認證" style="rounded=1;whiteSpace=wrap;html=1;" vertex="1" parent="1">
          <mxGeometry x="260" y="110" width="90" height="40" as="geometry" />
        </mxCell>
        <mxCell id="QDK1HJ11pZuQHfol41g1-7" style="edgeStyle=orthogonalEdgeStyle;rounded=0;orthogonalLoop=1;jettySize=auto;html=1;exitX=0.5;exitY=1;exitDx=0;exitDy=0;entryX=0.5;entryY=0;entryDx=0;entryDy=0;" edge="1" parent="1" source="QDK1HJ11pZuQHfol41g1-3" target="QDK1HJ11pZuQHfol41g1-4">
          <mxGeometry relative="1" as="geometry" />
        </mxCell>
        <mxCell id="QDK1HJ11pZuQHfol41g1-3" value="授信 定價" style="rounded=1;whiteSpace=wrap;html=1;" vertex="1" parent="1">
          <mxGeometry x="260" y="190" width="90" height="40" as="geometry" />
        </mxCell>
        <mxCell id="QDK1HJ11pZuQHfol41g1-17" style="edgeStyle=orthogonalEdgeStyle;rounded=0;orthogonalLoop=1;jettySize=auto;html=1;exitX=0.5;exitY=1;exitDx=0;exitDy=0;entryX=0.5;entryY=0;entryDx=0;entryDy=0;" edge="1" parent="1" source="QDK1HJ11pZuQHfol41g1-4" target="QDK1HJ11pZuQHfol41g1-8">
          <mxGeometry relative="1" as="geometry" />
        </mxCell>
        <mxCell id="QDK1HJ11pZuQHfol41g1-4" value="審批&lt;span style=&quot;color: rgba(0, 0, 0, 0); font-family: monospace; font-size: 0px; text-align: start; text-wrap-mode: nowrap;&quot;&gt;%3CmxGraphModel%3E%3Croot%3E%3CmxCell%20id%3D%220%22%2F%3E%3CmxCell%20id%3D%221%22%20parent%3D%220%22%2F%3E%3CmxCell%20id%3D%222%22%20value%3D%22%22%20style%3D%22rounded%3D1%3BwhiteSpace%3Dwrap%3Bhtml%3D1%3B%22%20vertex%3D%221%22%20parent%3D%221%22%3E%3CmxGeometry%20x%3D%22260%22%20y%3D%22190%22%20width%3D%2290%22%20height%3D%2240%22%20as%3D%22geometry%22%2F%3E%3C%2FmxCell%3E%3C%2Froot%3E%3C%2FmxGraphModel%3E&lt;/span&gt;" style="rounded=1;whiteSpace=wrap;html=1;" vertex="1" parent="1">
          <mxGeometry x="260" y="260" width="90" height="40" as="geometry" />
        </mxCell>
        <mxCell id="QDK1HJ11pZuQHfol41g1-26" style="edgeStyle=orthogonalEdgeStyle;rounded=0;orthogonalLoop=1;jettySize=auto;html=1;exitX=0;exitY=0.5;exitDx=0;exitDy=0;entryX=0.5;entryY=1;entryDx=0;entryDy=0;" edge="1" parent="1" source="QDK1HJ11pZuQHfol41g1-8" target="QDK1HJ11pZuQHfol41g1-23">
          <mxGeometry relative="1" as="geometry" />
        </mxCell>
        <mxCell id="QDK1HJ11pZuQHfol41g1-31" style="edgeStyle=orthogonalEdgeStyle;rounded=0;orthogonalLoop=1;jettySize=auto;html=1;exitX=0.5;exitY=1;exitDx=0;exitDy=0;" edge="1" parent="1" source="QDK1HJ11pZuQHfol41g1-8" target="QDK1HJ11pZuQHfol41g1-29">
          <mxGeometry relative="1" as="geometry" />
        </mxCell>
        <mxCell id="QDK1HJ11pZuQHfol41g1-8" value="未通過" style="rounded=1;whiteSpace=wrap;html=1;" vertex="1" parent="1">
          <mxGeometry x="260" y="410" width="90" height="40" as="geometry" />
        </mxCell>
        <mxCell id="QDK1HJ11pZuQHfol41g1-9" value="" style="shape=curlyBracket;whiteSpace=wrap;html=1;rounded=1;labelPosition=left;verticalLabelPosition=middle;align=right;verticalAlign=middle;" vertex="1" parent="1">
          <mxGeometry x="350" y="210" width="20" height="120" as="geometry" />
        </mxCell>
        <mxCell id="QDK1HJ11pZuQHfol41g1-66" style="edgeStyle=orthogonalEdgeStyle;rounded=0;orthogonalLoop=1;jettySize=auto;html=1;exitX=0.5;exitY=1;exitDx=0;exitDy=0;entryX=0.5;entryY=0;entryDx=0;entryDy=0;" edge="1" parent="1" source="QDK1HJ11pZuQHfol41g1-10" target="QDK1HJ11pZuQHfol41g1-11">
          <mxGeometry relative="1" as="geometry" />
        </mxCell>
        <mxCell id="QDK1HJ11pZuQHfol41g1-10" value="反詐欺引擎" style="rounded=1;whiteSpace=wrap;html=1;" vertex="1" parent="1">
          <mxGeometry x="370" y="195" width="80" height="30" as="geometry" />
        </mxCell>
        <mxCell id="QDK1HJ11pZuQHfol41g1-67" style="edgeStyle=orthogonalEdgeStyle;rounded=0;orthogonalLoop=1;jettySize=auto;html=1;exitX=0.5;exitY=1;exitDx=0;exitDy=0;" edge="1" parent="1" source="QDK1HJ11pZuQHfol41g1-11" target="QDK1HJ11pZuQHfol41g1-12">
          <mxGeometry relative="1" as="geometry" />
        </mxCell>
        <mxCell id="QDK1HJ11pZuQHfol41g1-11" value="信用評估引擎" style="rounded=1;whiteSpace=wrap;html=1;" vertex="1" parent="1">
          <mxGeometry x="370" y="255" width="80" height="30" as="geometry" />
        </mxCell>
        <mxCell id="QDK1HJ11pZuQHfol41g1-12" value="人工審核" style="rounded=1;whiteSpace=wrap;html=1;" vertex="1" parent="1">
          <mxGeometry x="370" y="310" width="80" height="30" as="geometry" />
        </mxCell>
        <mxCell id="QDK1HJ11pZuQHfol41g1-13" value="" style="shape=curlyBracket;whiteSpace=wrap;html=1;rounded=1;labelPosition=left;verticalLabelPosition=middle;align=right;verticalAlign=middle;" vertex="1" parent="1">
          <mxGeometry x="450" y="230" width="20" height="80" as="geometry" />
        </mxCell>
        <mxCell id="QDK1HJ11pZuQHfol41g1-14" value="政策規則" style="rounded=1;whiteSpace=wrap;html=1;" vertex="1" parent="1">
          <mxGeometry x="480" y="210" width="80" height="30" as="geometry" />
        </mxCell>
        <mxCell id="QDK1HJ11pZuQHfol41g1-15" value="使用規則" style="rounded=1;whiteSpace=wrap;html=1;" vertex="1" parent="1">
          <mxGeometry x="480" y="255" width="80" height="30" as="geometry" />
        </mxCell>
        <mxCell id="QDK1HJ11pZuQHfol41g1-16" value="申請評分卡" style="rounded=1;whiteSpace=wrap;html=1;fillColor=#e1d5e7;strokeColor=#9673a6;" vertex="1" parent="1">
          <mxGeometry x="480" y="300" width="80" height="30" as="geometry" />
        </mxCell>
        <mxCell id="QDK1HJ11pZuQHfol41g1-21" value="" style="endArrow=classic;html=1;rounded=0;entryX=0.5;entryY=0;entryDx=0;entryDy=0;" edge="1" parent="1" target="QDK1HJ11pZuQHfol41g1-22">
          <mxGeometry width="50" height="50" relative="1" as="geometry">
            <mxPoint x="300" y="360" as="sourcePoint" />
            <mxPoint x="430" y="360" as="targetPoint" />
            <Array as="points">
              <mxPoint x="425" y="360" />
            </Array>
          </mxGeometry>
        </mxCell>
        <mxCell id="QDK1HJ11pZuQHfol41g1-30" style="edgeStyle=orthogonalEdgeStyle;rounded=0;orthogonalLoop=1;jettySize=auto;html=1;exitX=0.5;exitY=1;exitDx=0;exitDy=0;" edge="1" parent="1" source="QDK1HJ11pZuQHfol41g1-22" target="QDK1HJ11pZuQHfol41g1-28">
          <mxGeometry relative="1" as="geometry" />
        </mxCell>
        <mxCell id="QDK1HJ11pZuQHfol41g1-22" value="通過" style="rounded=1;whiteSpace=wrap;html=1;fillColor=#d5e8d4;strokeColor=#82b366;" vertex="1" parent="1">
          <mxGeometry x="380" y="410" width="90" height="40" as="geometry" />
        </mxCell>
        <mxCell id="QDK1HJ11pZuQHfol41g1-25" style="edgeStyle=orthogonalEdgeStyle;rounded=0;orthogonalLoop=1;jettySize=auto;html=1;exitX=0.5;exitY=0;exitDx=0;exitDy=0;entryX=0;entryY=0.5;entryDx=0;entryDy=0;" edge="1" parent="1" source="QDK1HJ11pZuQHfol41g1-23" target="QDK1HJ11pZuQHfol41g1-4">
          <mxGeometry relative="1" as="geometry" />
        </mxCell>
        <mxCell id="QDK1HJ11pZuQHfol41g1-23" value="更新數據" style="rounded=1;whiteSpace=wrap;html=1;" vertex="1" parent="1">
          <mxGeometry x="140" y="340" width="90" height="40" as="geometry" />
        </mxCell>
        <mxCell id="QDK1HJ11pZuQHfol41g1-35" style="edgeStyle=orthogonalEdgeStyle;rounded=0;orthogonalLoop=1;jettySize=auto;html=1;exitX=0.5;exitY=1;exitDx=0;exitDy=0;" edge="1" parent="1" source="QDK1HJ11pZuQHfol41g1-28" target="QDK1HJ11pZuQHfol41g1-33">
          <mxGeometry relative="1" as="geometry" />
        </mxCell>
        <mxCell id="QDK1HJ11pZuQHfol41g1-36" style="edgeStyle=orthogonalEdgeStyle;rounded=0;orthogonalLoop=1;jettySize=auto;html=1;exitX=0.5;exitY=1;exitDx=0;exitDy=0;" edge="1" parent="1" source="QDK1HJ11pZuQHfol41g1-28" target="QDK1HJ11pZuQHfol41g1-32">
          <mxGeometry relative="1" as="geometry" />
        </mxCell>
        <mxCell id="QDK1HJ11pZuQHfol41g1-28" value="提款" style="rounded=1;whiteSpace=wrap;html=1;fillColor=#d5e8d4;strokeColor=#82b366;" vertex="1" parent="1">
          <mxGeometry x="400" y="480" width="90" height="40" as="geometry" />
        </mxCell>
        <mxCell id="QDK1HJ11pZuQHfol41g1-29" value="流失" style="rounded=1;whiteSpace=wrap;html=1;fillColor=#dae8fc;strokeColor=#6c8ebf;" vertex="1" parent="1">
          <mxGeometry x="280" y="480" width="90" height="40" as="geometry" />
        </mxCell>
        <mxCell id="QDK1HJ11pZuQHfol41g1-38" style="edgeStyle=orthogonalEdgeStyle;rounded=0;orthogonalLoop=1;jettySize=auto;html=1;exitX=0.5;exitY=1;exitDx=0;exitDy=0;" edge="1" parent="1" source="QDK1HJ11pZuQHfol41g1-32" target="QDK1HJ11pZuQHfol41g1-37">
          <mxGeometry relative="1" as="geometry" />
        </mxCell>
        <mxCell id="QDK1HJ11pZuQHfol41g1-43" style="edgeStyle=orthogonalEdgeStyle;rounded=0;orthogonalLoop=1;jettySize=auto;html=1;exitX=0.5;exitY=1;exitDx=0;exitDy=0;" edge="1" parent="1" source="QDK1HJ11pZuQHfol41g1-32" target="QDK1HJ11pZuQHfol41g1-40">
          <mxGeometry relative="1" as="geometry" />
        </mxCell>
        <mxCell id="QDK1HJ11pZuQHfol41g1-32" value="還款" style="rounded=1;whiteSpace=wrap;html=1;fillColor=#d5e8d4;strokeColor=#82b366;" vertex="1" parent="1">
          <mxGeometry x="450" y="550" width="90" height="40" as="geometry" />
        </mxCell>
        <mxCell id="QDK1HJ11pZuQHfol41g1-33" value="逾期" style="rounded=1;whiteSpace=wrap;html=1;" vertex="1" parent="1">
          <mxGeometry x="350" y="550" width="90" height="40" as="geometry" />
        </mxCell>
        <mxCell id="QDK1HJ11pZuQHfol41g1-52" style="edgeStyle=orthogonalEdgeStyle;rounded=0;orthogonalLoop=1;jettySize=auto;html=1;exitX=0.5;exitY=1;exitDx=0;exitDy=0;entryX=0.5;entryY=0;entryDx=0;entryDy=0;" edge="1" parent="1" source="QDK1HJ11pZuQHfol41g1-37" target="QDK1HJ11pZuQHfol41g1-50">
          <mxGeometry relative="1" as="geometry" />
        </mxCell>
        <mxCell id="QDK1HJ11pZuQHfol41g1-37" value="再次貸款" style="rounded=1;whiteSpace=wrap;html=1;" vertex="1" parent="1">
          <mxGeometry x="450" y="630" width="90" height="40" as="geometry" />
        </mxCell>
        <mxCell id="QDK1HJ11pZuQHfol41g1-40" value="流失" style="rounded=1;whiteSpace=wrap;html=1;fillColor=#dae8fc;strokeColor=#6c8ebf;" vertex="1" parent="1">
          <mxGeometry x="560" y="630" width="90" height="40" as="geometry" />
        </mxCell>
        <mxCell id="QDK1HJ11pZuQHfol41g1-44" value="" style="shape=curlyBracket;whiteSpace=wrap;html=1;rounded=1;flipH=1;labelPosition=right;verticalLabelPosition=middle;align=left;verticalAlign=middle;size=0.5;" vertex="1" parent="1">
          <mxGeometry x="330" y="540" width="20" height="60" as="geometry" />
        </mxCell>
        <mxCell id="QDK1HJ11pZuQHfol41g1-45" value="催收引擎" style="rounded=1;whiteSpace=wrap;html=1;" vertex="1" parent="1">
          <mxGeometry x="240" y="530" width="80" height="30" as="geometry" />
        </mxCell>
        <mxCell id="QDK1HJ11pZuQHfol41g1-46" value="納入黑名單" style="rounded=1;whiteSpace=wrap;html=1;" vertex="1" parent="1">
          <mxGeometry x="240" y="580" width="80" height="30" as="geometry" />
        </mxCell>
        <mxCell id="QDK1HJ11pZuQHfol41g1-47" value="" style="shape=curlyBracket;whiteSpace=wrap;html=1;rounded=1;flipH=1;labelPosition=right;verticalLabelPosition=middle;align=left;verticalAlign=middle;" vertex="1" parent="1">
          <mxGeometry x="210" y="520" width="20" height="60" as="geometry" />
        </mxCell>
        <mxCell id="QDK1HJ11pZuQHfol41g1-48" value="失聯修復" style="rounded=1;whiteSpace=wrap;html=1;" vertex="1" parent="1">
          <mxGeometry x="120" y="510" width="80" height="30" as="geometry" />
        </mxCell>
        <mxCell id="QDK1HJ11pZuQHfol41g1-49" value="催收評分卡" style="rounded=1;whiteSpace=wrap;html=1;fillColor=#e1d5e7;strokeColor=#9673a6;" vertex="1" parent="1">
          <mxGeometry x="120" y="560" width="80" height="30" as="geometry" />
        </mxCell>
        <mxCell id="QDK1HJ11pZuQHfol41g1-54" style="edgeStyle=orthogonalEdgeStyle;rounded=0;orthogonalLoop=1;jettySize=auto;html=1;exitX=0.5;exitY=1;exitDx=0;exitDy=0;entryX=0.5;entryY=0;entryDx=0;entryDy=0;" edge="1" parent="1" source="QDK1HJ11pZuQHfol41g1-50" target="QDK1HJ11pZuQHfol41g1-53">
          <mxGeometry relative="1" as="geometry" />
        </mxCell>
        <mxCell id="QDK1HJ11pZuQHfol41g1-50" value="復待審批" style="rounded=1;whiteSpace=wrap;html=1;" vertex="1" parent="1">
          <mxGeometry x="450" y="690" width="90" height="40" as="geometry" />
        </mxCell>
        <mxCell id="QDK1HJ11pZuQHfol41g1-53" value="額度管理" style="rounded=1;whiteSpace=wrap;html=1;" vertex="1" parent="1">
          <mxGeometry x="450" y="760" width="90" height="40" as="geometry" />
        </mxCell>
        <mxCell id="QDK1HJ11pZuQHfol41g1-55" value="" style="shape=curlyBracket;whiteSpace=wrap;html=1;rounded=1;flipH=1;labelPosition=right;verticalLabelPosition=middle;align=left;verticalAlign=middle;" vertex="1" parent="1">
          <mxGeometry x="430" y="650" width="20" height="120" as="geometry" />
        </mxCell>
        <mxCell id="QDK1HJ11pZuQHfol41g1-58" style="edgeStyle=orthogonalEdgeStyle;rounded=0;orthogonalLoop=1;jettySize=auto;html=1;exitX=0.5;exitY=1;exitDx=0;exitDy=0;" edge="1" parent="1" source="QDK1HJ11pZuQHfol41g1-56" target="QDK1HJ11pZuQHfol41g1-57">
          <mxGeometry relative="1" as="geometry" />
        </mxCell>
        <mxCell id="QDK1HJ11pZuQHfol41g1-56" value="反詐欺引擎" style="rounded=1;whiteSpace=wrap;html=1;" vertex="1" parent="1">
          <mxGeometry x="330" y="635" width="90" height="30" as="geometry" />
        </mxCell>
        <mxCell id="QDK1HJ11pZuQHfol41g1-60" style="edgeStyle=orthogonalEdgeStyle;rounded=0;orthogonalLoop=1;jettySize=auto;html=1;exitX=0.5;exitY=1;exitDx=0;exitDy=0;entryX=0.5;entryY=0;entryDx=0;entryDy=0;" edge="1" parent="1" source="QDK1HJ11pZuQHfol41g1-57" target="QDK1HJ11pZuQHfol41g1-59">
          <mxGeometry relative="1" as="geometry" />
        </mxCell>
        <mxCell id="QDK1HJ11pZuQHfol41g1-57" value="信用評估引擎" style="rounded=1;whiteSpace=wrap;html=1;" vertex="1" parent="1">
          <mxGeometry x="330" y="695" width="90" height="30" as="geometry" />
        </mxCell>
        <mxCell id="QDK1HJ11pZuQHfol41g1-59" value="人工審核" style="rounded=1;whiteSpace=wrap;html=1;" vertex="1" parent="1">
          <mxGeometry x="330" y="750" width="90" height="30" as="geometry" />
        </mxCell>
        <mxCell id="QDK1HJ11pZuQHfol41g1-61" value="" style="shape=curlyBracket;whiteSpace=wrap;html=1;rounded=1;flipH=1;labelPosition=right;verticalLabelPosition=middle;align=left;verticalAlign=middle;size=0.5;" vertex="1" parent="1">
          <mxGeometry x="300" y="650" width="20" height="120" as="geometry" />
        </mxCell>
        <mxCell id="QDK1HJ11pZuQHfol41g1-63" value="政策規則" style="rounded=1;whiteSpace=wrap=wrap0 Bhtml=1;" vertex="1" parent="1">
          <mxGeometry x="190" y="635" width="90" height="30" as="geometry" />
        </mxCell>
        <mxCell id="QDK1HJ11pZuQHfol41g1-64" value="使用規則" style="rounded=1;whiteSpace=wrap=wrap0 Bhtml=1;" vertex="1" parent="1">
          <mxGeometry x="190" y="690" width="90" height="30" as="geometry" />
        </mxCell>
        <mxCell id="QDK1HJ11pZuQHfol41g1-65" value="行為評分卡" style="rounded=1;whiteSpace=wrap=wrap0 Bhtml=1;fillColor=#e1d5e7;strokeColor=#9673a6;" vertex="1" parent="1">
          <mxGeometry x="190" y="750" width="90" height="30" as="geometry" />
        </mxCell>
        <mxCell id="QDK1HJ11pZuQHfol41g1-70" style="edgeStyle=orthogonalEdgeStyle;rounded=0;orthogonalLoop=1;jettySize=auto;html=1;exitX=0.25;exitY=0;exitDx=0;exitDy=0;entryX=1;entryY=1;entryDx=0;entryDy=0;" edge="1" parent="1" source="QDK1HJ11pZuQHfol41g1-68" target="QDK1HJ11pZuQHfol41g1-16">
          <mxGeometry relative="1" as="geometry" />
        </mxCell>
        <mxCell id="QDK1HJ11pZuQHfol41g1-68" value="&lt;span style=&quot;color: rgb(63, 63, 63); font-family: -apple-system, BlinkMacSystemFont, &amp;quot;Segoe UI Variable&amp;quot;, &amp;quot;Segoe UI&amp;quot;, system-ui, ui-sans-serif, Helvetica, Arial, sans-serif, &amp;quot;Apple Color Emoji&amp;quot;, &amp;quot;Segoe UI Emoji&amp;quot;; font-style: normal; font-variant-ligatures: normal; font-variant-caps: normal; font-weight: 400; letter-spacing: normal; orphans: 2; text-align: center; text-indent: 0px; text-transform: none; widows: 2; word-spacing: 0px; -webkit-text-stroke-width: 0px; white-space: normal; background-color: rgb(241, 243, 244); text-decoration-thickness: initial; text-decoration-style: initial; text-decoration-color: initial; float: none; display: inline !important;&quot;&gt;&lt;font style=&quot;font-size: 17px;&quot;&gt;針對新客&lt;/font&gt;&lt;/span&gt;" style="text;whiteSpace=wrap;html=1;" vertex="1" parent="1">
          <mxGeometry x="525" y="334" width="125" height="80" as="geometry" />
        </mxCell>
        <mxCell id="QDK1HJ11pZuQHfol41g1-71" value="&lt;div style=&quot;text-align: center;&quot;&gt;&lt;font face=&quot;-apple-system, BlinkMacSystemFont, Segoe UI Variable, Segoe UI, system-ui, ui-sans-serif, Helvetica, Arial, sans-serif, Apple Color Emoji, Segoe UI Emoji&quot; color=&quot;#3f3f3f&quot;&gt;&lt;span style=&quot;font-size: 17px; background-color: rgb(241, 243, 244);&quot;&gt;再次申請&lt;/span&gt;&lt;/font&gt;&lt;/div&gt;" style="text;whiteSpace=wrap;html=1;" vertex="1" parent="1">
          <mxGeometry x="175" y="250" width="125" height="80" as="geometry" />
        </mxCell>
        <mxCell id="QDK1HJ11pZuQHfol41g1-72" value="&lt;div style=&quot;text-align: center;&quot;&gt;&lt;font face=&quot;-apple-system, BlinkMacSystemFont, Segoe UI Variable, Segoe UI, system-ui, ui-sans-serif, Helvetica, Arial, sans-serif, Apple Color Emoji, Segoe UI Emoji&quot; color=&quot;#3f3f3f&quot;&gt;&lt;span style=&quot;font-size: 17px; background-color: rgb(241, 243, 244);&quot;&gt;針對逾期老客&lt;/span&gt;&lt;/font&gt;&lt;/div&gt;" style="text;whiteSpace=wrap;html=1;" vertex="1" parent="1">
          <mxGeometry x="70" y="585" width="120" height="85" as="geometry" />
        </mxCell>
        <mxCell id="QDK1HJ11pZuQHfol41g1-73" value="&lt;div style=&quot;text-align: center;&quot;&gt;&lt;span style=&quot;color: rgb(63, 63, 63); font-family: -apple-system, BlinkMacSystemFont, &amp;quot;Segoe UI Variable&amp;quot;, &amp;quot;Segoe UI&amp;quot;, system-ui, ui-sans-serif, Helvetica, Arial, sans-serif, &amp;quot;Apple Color Emoji&amp;quot;, &amp;quot;Segoe UI Emoji&amp;quot;; font-size: 17px; background-color: rgb(241, 243, 244);&quot;&gt;針對未逾期老客&lt;/span&gt;&lt;/div&gt;" style="text;whiteSpace=wrap;html=1;" vertex="1" parent="1">
          <mxGeometry x="140" y="780" width="125" height="80" as="geometry" />
        </mxCell>
      </root>
    </mxGraphModel>
  </diagram>
</mxfile>
